# xmcd CD database file
#
# Track frame offsets:
#	150
#	16878
#	37507
#	74111
#	95339
#	120243
#	157447
#	182651
#	216105
#	231857
#	251735
#	280763
#	303941
#
# Disc length: 4433 seconds
#
# Revision: 7
# Processed by: cddbd v1.5.2PL0 Copyright (c) Steve Scherf et al.
# Submitted via: CDex 1.50Beta5
#
DISCID=ad114f0d
DTITLE=Eric Clapton - The Very Best - Blues And Ballads
DYEAR=1994
DGENRE=Ballad
TTITLE0=Wonderful Tonight
TTITLE1=Tears In Heaven
TTITLE2=Double Trouble (Live)
TTITLE3=Layla (Unplugged)
TTITLE4=Pretty Girl
TTITLE5=Same Old Blues
TTITLE6=Running On Faith
TTITLE7=Rambling On My Mind
TTITLE8=Please Be With Me
TTITLE9=Knockin' On Heaven's Door
TTITLE10=Old Love
TTITLE11=It All Depends
TTITLE12=It's Probably Me (Bonus Track)
EXTD=YEAR: 1994
EXTT0=Slowhand 1977
EXTT1=Rush 1991
EXTT2=Just one Night 1980
EXTT3=Unplugged 1992
EXTT4=Money and Cigarettes 1983
EXTT5=Behind the Sun 1985
EXTT6=Jurneyman 1989
EXTT7=Unreleased 1975
EXTT8=Taken from single 1975
EXTT9=Jurneyman 1989
EXTT10=Jurneyman 1989
EXTT11=Behind the Sun 1985
EXTT12=(Sting with E. Clapton) From the Motion Picture "Lethal weapon 3" 1992
PLAYORDER=
